<?xml version="1.0" encoding="UTF-8"?>
<svg id="Layer_1" xmlns="http://www.w3.org/2000/svg" version="1.1" viewBox="0 0 920.5 503">
  <!-- Generator: Adobe Illustrator 29.8.1, SVG Export Plug-In . SVG Version: 2.1.1 Build 2)  -->
  <defs>
    <style>
      .st0 {
        font-family: AvenirNext-Regular, 'Avenir Next';
        font-size: 46.1px;
      }

      .st0, .st1 {
        isolation: isolate;
      }

      .st0, .st2 {
        fill: #fff;
      }
    </style>
  </defs>
  <g>
    <path class="st2" d="M145.7,186.1c5.2,0,10.6-.6,16.2-1.8,5.6-1.2,10.7-3.3,15.3-6.5,4.6-3.1,8.4-7.4,11.4-12.9,2.9-5.5,4.4-12.5,4.4-21.1s-1-13.1-3-17.7c-2-4.5-4.8-8.1-8.5-10.6-3.6-2.5-8-4.3-13.3-5.2-5.2-.9-11.1-1.4-17.7-1.4h-22.8v75.1c5.7,1.4,11.7,2,17.9,2h0ZM106.4,132.4c-.4-10.7-.9-21.6-1.4-32.7,4,.3,8.1.6,12.3.9,4.1.3,8.2.4,12.3.4s4.5,0,7.3-.3c2.9-.2,5.8-.3,8.7-.4,2.9,0,5.8-.2,8.5-.4,2.7-.2,5-.3,6.8-.3s5.6,0,9.3.3c3.7.2,7.6.7,11.8,1.5,4.1.9,8.2,2.1,12.3,3.8,4,1.7,7.7,4.1,11,7.3,3.3,3.2,5.9,7.2,8,12,2,4.8,3,10.7,3,17.8,0,11.1-2.4,20.1-7.2,27-4.8,6.9-10.7,12.3-17.7,16.2-7,3.9-14.4,6.5-22.2,7.8-7.8,1.4-14.8,2-20.9,2s-7.4,0-10.6-.1c-3.2,0-6.5-.3-9.8-.6v13.9c0,11.1.2,22.1.6,32.9.4,10.8.9,21.4,1.4,31.8-3.9-.3-8-.5-12.4-.5s-8.5.2-12.4.5c.5-10.5,1-21.1,1.4-31.8.4-10.8.6-21.7.6-32.9v-43.5c0-11.1-.2-22-.6-32.7h0ZM255.3,163.1c-4.3,2.9-7.8,6.4-10.6,10.7-2.8,4.3-4.9,9-6.3,14.2-1.4,5.1-2.3,10-2.7,14.5,5.2.2,10.7.3,16.3.5,5.6.2,11.2.2,16.5.2s11.2,0,16.9-.2c5.7-.2,11.3-.3,16.7-.5,0-4.5-.4-9.3-1.1-14.4-.8-5-2.3-9.8-4.6-14.1-2.3-4.4-5.4-8-9.5-10.9-4-2.9-9.3-4.3-15.9-4.3s-11.5,1.4-15.8,4.3h0ZM227.5,168.5c9.9-11.8,24.2-17.7,43.1-17.7s16.6,1.4,23.1,4.2c6.5,2.8,11.9,6.5,16.3,11.1,4.4,4.6,7.6,10.1,9.7,16.3,2.1,6.2,3.2,12.9,3.2,20s0,3.3-.1,4.9c0,1.6-.2,3.2-.4,4.9-9.1-.2-18.1-.3-27.1-.5-8.9-.2-17.9-.3-27-.3s-11.1,0-16.6.3c-5.5.2-11,.3-16.5.5-.2.8-.3,2.1-.3,3.8v3.3c0,6.6,1,12.7,2.9,18.5,1.9,5.7,4.8,10.7,8.5,14.8,3.7,4.1,8.3,7.4,13.6,9.9,5.4,2.4,11.6,3.7,18.7,3.7s6.8-.5,10.4-1.4c3.5-.9,7-2.2,10.4-3.8,3.4-1.6,6.5-3.5,9.5-5.7,2.9-2.2,5.5-4.5,7.7-7.1l1.3.8-1.5,12.4c-5.1,4-11.3,7.5-18.8,10.4-7.5,2.9-15.3,4.3-23.4,4.3s-17.4-1.4-24.9-4.2c-7.5-2.8-14-6.8-19.5-12.1-5.5-5.3-9.7-11.6-12.6-18.8-2.9-7.2-4.4-15.1-4.4-23.5,0-20.7,4.9-37,14.8-48.8h0ZM393.5,171.2c-2.4-.8-4.9-1.3-7.5-1.3-4,0-7.7.9-10.9,2.8-3.2,1.9-5.9,4.3-8.1,7.4-2.2,3.1-3.9,6.8-5.1,11.1-1.2,4.3-1.8,8.9-1.8,13.8v27.8c0,11.3,0,19.9.1,25.9,0,6,.4,10.8.9,14.5-3.4-.3-6.8-.5-10.1-.5s-7.3.2-10.6.5c.5-5.7.8-13.5.9-23.4,0-9.9.1-21.9.1-36.2v-8.1c0-6.6,0-14.2-.1-22.8,0-8.6-.4-18.4-.9-29.6,1.8.3,3.6.6,5.3.9,1.7.3,3.5.4,5.3.4s3.1-.1,4.8-.4c1.7-.3,3.4-.5,5.3-.9-.7,6.1-1.1,10.9-1.1,14.4,0,3.5-.1,6.9-.1,10.1l.5.2c9.9-18.2,21.1-27.3,33.4-27.3s2.8,0,3.9.3c1.1.2,2.5.6,4.2,1.3-.8,2-1.3,5.1-1.5,9.2-.2,4.1-.2,7.9-.2,11.3l-1.8,1.3c-.8-1-2.5-1.9-4.9-2.8h0ZM420.3,136.9c0-6.7-.2-13.4-.4-20-.2-6.6-.4-12.9-.6-18.8-.3-6-.5-11.1-.9-15.3,4.7.9,8.5,1.3,11.4,1.3s6.7-.4,11.4-1.3c-.3,4.2-.6,9.3-.9,15.3-.3,6-.5,12.3-.6,18.8-.2,6.5-.3,13.2-.4,20,0,6.8-.1,13-.1,18.7v46c0,3.2,1,4.8,3,4.8s2.8-.6,4.4-1.8c1.6-1.2,3.4-2.5,5.4-4,1.5-1.2,4.1-3.5,7.7-6.8,3.6-3.4,7.7-7.3,12.1-11.8,4.4-4.5,9-9.2,13.8-14.3,4.7-5.1,9-9.9,12.9-14.4,3.4.8,6.6,1.3,9.6,1.3s3.7-.1,5.6-.4c1.9-.3,4.2-.5,7.1-.9-10.6,8.6-20.8,17.1-30.5,25.4-9.7,8.3-18.9,16.8-27.7,25.4,9.6,11.6,19.5,23.2,29.7,34.9,10.2,11.6,20.6,23.1,31.2,34.4-2.9-.3-5.4-.5-7.7-.5h-12.8c-2.2,0-4.5.2-6.8.5-3.7-4.2-7.9-9.1-12.6-14.8-4.7-5.6-9.4-11.2-14-16.8-4.6-5.6-9.1-10.8-13.3-15.7-4.2-4.9-7.8-8.9-10.9-12.1-.5-.7-1.1-1.3-1.8-1.8-.7-.5-1.4-.8-2-.8-1.7,0-2.5,1-2.5,3v15.1c0,7.6.1,15,.4,22.1.2,7.2.8,14.4,1.7,21.6-3.9-.3-7.7-.5-11.4-.5s-7.5.2-11.4.5c.3-3.9.6-8.8.9-14.7.3-5.9.5-12.1.6-18.7.2-6.6.3-13.2.4-20,0-6.7.1-13,.1-18.7v-45.7c0-5.7,0-12-.1-18.7h0ZM539,100.2c2.5-2.5,5.6-3.8,9.1-3.8s6.6,1.3,9.1,3.8c2.5,2.5,3.8,5.6,3.8,9.1s-1.3,6.6-3.8,9.1c-2.5,2.5-5.6,3.8-9.1,3.8s-6.6-1.3-9.1-3.8c-2.5-2.5-3.8-5.6-3.8-9.1s1.3-6.6,3.8-9.1h0ZM538.3,176.7c-.3-8.3-.8-16.1-1.6-23.4,4.7.8,8.5,1.3,11.4,1.3s6.6-.4,11.4-1.3c-.8,7.2-1.4,15-1.7,23.4-.2,8.3-.4,16.3-.4,23.9v26.3c0,7.6.1,15.6.4,23.9.2,8.3.8,15.9,1.7,22.6-3.9-.3-7.7-.5-11.4-.5s-7.5.2-11.4.5c.8-6.7,1.4-14.3,1.6-22.6.2-8.3.4-16.3.4-23.9v-26.3c0-7.6-.1-15.5-.4-23.9h0ZM658.5,173.6c-4.9-6.5-11.6-9.7-20.2-9.7s-20.4,3.6-25.9,10.9c-5.5,7.2-8.2,17.4-8.2,30.6v21.5c0,7.6.1,15.6.4,23.9.3,8.3.8,15.9,1.6,22.6-3.9-.3-7.7-.5-11.4-.5s-7.5.2-11.4.5c.8-6.7,1.4-14.3,1.6-22.6.3-8.3.4-16.3.4-23.9v-26.3c0-7.6-.1-15.5-.4-23.9-.2-8.3-.8-16.1-1.6-23.4,4.7.8,8.5,1.3,11.4,1.3s2.8-.1,4.4-.4c1.6-.3,3.5-.5,5.7-.9-.5,6.7-.8,13.5-.8,20.2h.5c4.7-7.2,10.4-12.8,17-16.8,6.6-4,14.5-5.9,23.6-5.9s9.5.7,14.3,2c4.8,1.4,9.2,3.7,13,6.9,3.9,3.3,7.1,7.8,9.5,13.4,2.4,5.6,3.7,12.8,3.7,21.6s-.2,14.7-.5,22.4c-.3,7.7-.5,15.8-.5,24.4v16.4c0,2.7,0,5.4.1,8,0,2.6.2,5.1.4,7.5-3.4-.3-7-.5-10.7-.5s-7.1.2-10.5.5c.3-8.8.7-17.8,1.1-27,.4-9.3.6-18.8.6-28.6v-15.4c0-12.6-2.5-22.2-7.3-28.7h0ZM714,255.4c1.8,2,3.9,3.9,6.3,5.7,2.4,1.8,5.2,3.2,8.3,4.4,3.1,1.2,6.4,1.8,10,1.8s6.3-.5,9.2-1.5c2.9-1,5.6-2.4,7.8-4.3,2.3-1.8,4.1-4.2,5.4-7.1,1.3-2.9,2-6.1,2-9.8,0-5.2-1.5-9.2-4.4-12-2.9-2.8-6.6-5.1-11-6.8-4.4-1.8-9.2-3.3-14.4-4.7-5.2-1.4-10-3.3-14.4-5.7-4.4-2.4-8-5.7-11-9.7-2.9-4.1-4.4-9.6-4.4-16.7s.9-10.6,2.8-15.3c1.9-4.6,4.5-8.6,8.1-12,3.5-3.4,7.9-6,13.2-8,5.2-1.9,11.2-2.9,17.9-2.9s11.5.8,15.8,2.5c4.3,1.7,8.4,3.2,12.3,4.5-1.4,2.5-2.6,5.7-3.8,9.4-1.2,3.7-1.9,6.6-2.3,8.6h-3c-1.4-4-4-7.7-7.8-10.9-3.9-3.2-8.7-4.8-14.4-4.8s-5,.4-7.6,1.2c-2.5.9-4.8,2.1-6.8,3.8-2,1.7-3.7,3.9-5,6.6-1.3,2.7-2,5.9-2,9.6,0,5.4,1.5,9.6,4.4,12.5,3,3,6.6,5.3,11,6.9,4.4,1.7,9.2,3.2,14.4,4.4,5.2,1.3,10,3,14.4,5.3,4.4,2.3,8.1,5.4,11,9.5,2.9,4,4.4,9.6,4.4,16.7s-1,9.7-3.1,14.4c-2.1,4.7-5.2,9-9.1,12.8-4,3.8-8.7,6.8-14.3,8.9-5.6,2.1-11.9,3.1-19,3.1s-14.2-.8-19.5-2.3c-5.2-1.5-9.6-3.3-13.1-5.3,1-2.2,2.1-5.2,3.2-9,1.1-3.8,1.6-7,1.6-9.5h3c.8,1.7,2.2,3.5,3.9,5.6h0Z"/>
    <path class="st2" d="M177.4,333c6,0,11-4.9,11-11s-4.9-11-11-11-11,4.9-11,11,4.9,11,11,11h0Z"/>
    <path class="st2" d="M177.4,366.5c6,0,11-4.9,11-11s-4.9-11-11-11-11,4.9-11,11,4.9,11,11,11h0Z"/>
    <path class="st2" d="M177.4,400c6,0,11-4.9,11-11s-4.9-11-11-11-11,4.9-11,11,4.9,11,11,11h0Z"/>
    <path class="st2" d="M211.4,333c6.1,0,11-4.9,11-11s-4.9-11-11-11-11,4.9-11,11,4.9,11,11,11h0Z"/>
    <path class="st2" d="M268.9,333c6.1,0,11-4.9,11-11s-4.9-11-11-11-11,4.9-11,11,4.9,11,11,11h0Z"/>
    <path class="st2" d="M304.7,366.5c6.1,0,11-4.9,11-11s-4.9-11-11-11-11,4.9-11,11,4.9,11,11,11h0Z"/>
    <path class="st2" d="M364,366.5c6.1,0,11-4.9,11-11s-4.9-11-11-11-11,4.9-11,11,4.9,11,11,11h0Z"/>
    <path class="st2" d="M398.5,366.5c6.1,0,11-4.9,11-11s-4.9-11-11-11-11,4.9-11,11,4.9,11,11,11h0Z"/>
    <path class="st2" d="M550.7,366.5c6.1,0,11-4.9,11-11s-4.9-11-11-11-11,4.9-11,11,4.9,11,11,11h0Z"/>
    <path class="st2" d="M672,363.9c6.1,0,11-4.9,11-11s-4.9-11-11-11-11,4.9-11,11,4.9,11,11,11h0Z"/>
    <path class="st2" d="M729.3,366.5c6.1,0,11-4.9,11-11s-4.9-11-11-11-11,4.9-11,11,4.9,11,11,11h0Z"/>
    <path class="st2" d="M364,333c6.1,0,11-4.9,11-11s-4.9-11-11-11-11,4.9-11,11,4.9,11,11,11h0Z"/>
    <path class="st2" d="M455.1,333c6,0,11-4.9,11-11s-4.9-11-11-11-11,4.9-11,11,4.9,11,11,11h0Z"/>
    <path class="st2" d="M584.1,333c6,0,11-4.9,11-11s-4.9-11-11-11-11,4.9-11,11,4.9,11,11,11h0Z"/>
    <path class="st2" d="M641.3,333c6.1,0,11-4.9,11-11s-4.9-11-11-11-11,4.9-11,11,4.9,11,11,11h0Z"/>
    <path class="st2" d="M672,333c6.1,0,11-4.9,11-11s-4.9-11-11-11-11,4.9-11,11,4.9,11,11,11h0Z"/>
    <path class="st2" d="M764.9,333c6.1,0,11-4.9,11-11s-4.9-11-11-11-11,4.9-11,11,4.9,11,11,11h0Z"/>
    <path class="st2" d="M364,400c6.1,0,11-4.9,11-11s-4.9-11-11-11-11,4.9-11,11,4.9,11,11,11h0Z"/>
    <path class="st2" d="M457.5,400c6.1,0,11-4.9,11-11s-4.9-11-11-11-11,4.9-11,11,4.9,11,11,11h0Z"/>
    <path class="st2" d="M641.3,398.4c6.1,0,11-4.9,11-11s-4.9-11-11-11-11,4.9-11,11,4.9,11,11,11h0Z"/>
    <path class="st2" d="M729.3,400c6.1,0,11-4.9,11-11s-4.9-11-11-11-11,4.9-11,11,4.9,11,11,11h0Z"/>
    <path class="st2" d="M115.2,400c6.1,0,11-4.9,11-11s-4.9-11-11-11-11,4.9-11,11,4.9,11,11,11h0Z"/>
  </g>
  <g class="st1">
    <g class="st1">
      <g class="st1">
        <g class="st1">
          <text class="st0" transform="translate(783.3 289.1)"><tspan x="0" y="0">™</tspan></text>
        </g>
      </g>
    </g>
  </g>
</svg>