<?xml version="1.0" encoding="UTF-8"?><svg id="Layer_1" xmlns="http://www.w3.org/2000/svg" viewBox="0 0 725.15 317.19"><path d="M41.45,103.37c5.22,0,10.62-.59,16.18-1.76,5.56-1.18,10.66-3.34,15.29-6.46,4.64-3.1,8.42-7.42,11.39-12.89,2.93-5.46,4.4-12.52,4.4-21.11,0-7.23-1.01-13.14-3.03-17.69-2.02-4.55-4.85-8.08-8.47-10.61-3.62-2.52-8.04-4.26-13.26-5.18-5.22-.93-11.13-1.4-17.69-1.4h-22.75v75.07c5.73,1.35,11.71,2.02,17.94,2.02h0ZM2.16,49.67c-.42-10.7-.88-21.6-1.38-32.74,4.04.34,8.13.65,12.26.9,4.12.26,8.2.38,12.25.38,2.02,0,4.45-.08,7.33-.26,2.86-.16,5.76-.27,8.71-.37,2.94-.07,5.77-.21,8.48-.39,2.68-.16,4.96-.26,6.81-.26,2.53,0,5.65.1,9.34.26,3.71.18,7.63.68,11.76,1.52,4.13.85,8.21,2.11,12.27,3.79,4.03,1.68,7.7,4.13,10.98,7.32,3.3,3.2,5.94,7.2,7.97,12.02,2.03,4.8,3.03,10.73,3.03,17.82,0,11.11-2.41,20.12-7.2,27.04-4.8,6.9-10.71,12.29-17.7,16.17-6.99,3.88-14.38,6.49-22.23,7.82-7.82,1.37-14.78,2.04-20.85,2.04-3.87,0-7.42-.05-10.62-.13-3.2-.09-6.48-.28-9.85-.62v13.89c0,11.11.2,22.07.63,32.86.42,10.78.88,21.39,1.4,31.84-3.89-.34-8.02-.5-12.4-.5s-8.5.16-12.37.5c.49-10.45.96-21.06,1.38-31.84.43-10.78.65-21.74.65-32.86v-43.47c0-11.12-.21-22.03-.65-32.73h0ZM151.01,80.38c-4.29,2.87-7.83,6.44-10.61,10.73-2.79,4.31-4.89,9.03-6.32,14.17-1.44,5.15-2.32,9.98-2.66,14.53,5.22.17,10.65.33,16.31.51,5.64.17,11.16.24,16.55.24s11.2-.07,16.93-.24c5.73-.18,11.29-.34,16.68-.51,0-4.55-.38-9.34-1.13-14.42-.76-5.04-2.27-9.76-4.56-14.14-2.27-4.38-5.44-8-9.47-10.87-4.04-2.86-9.35-4.3-15.93-4.3-6.23,0-11.49,1.44-15.8,4.3h0ZM123.22,85.69c9.85-11.79,24.22-17.7,43.09-17.7,8.93,0,16.64,1.4,23.12,4.17,6.49,2.77,11.92,6.48,16.31,11.12,4.37,4.64,7.62,10.07,9.73,16.3,2.1,6.23,3.15,12.89,3.15,19.96,0,1.68-.04,3.33-.12,4.93-.09,1.61-.22,3.24-.38,4.93-9.1-.16-18.12-.32-27.05-.49-8.93-.17-17.94-.27-27.03-.27-5.57,0-11.09.1-16.57.27-5.48.17-10.99.33-16.55.49-.18.84-.26,2.12-.26,3.79v3.29c0,6.56.96,12.72,2.91,18.45,1.93,5.72,4.76,10.66,8.46,14.78,3.7,4.12,8.26,7.42,13.65,9.85,5.4,2.44,11.63,3.66,18.7,3.66,3.37,0,6.82-.46,10.37-1.39,3.53-.93,6.99-2.17,10.37-3.78,3.36-1.61,6.51-3.5,9.47-5.7,2.95-2.19,5.51-4.55,7.7-7.07l1.27.76-1.52,12.38c-5.06,4.05-11.33,7.52-18.83,10.37-7.49,2.87-15.28,4.29-23.37,4.29-9.09,0-17.39-1.38-24.89-4.16-7.5-2.78-13.98-6.82-19.47-12.14-5.46-5.31-9.68-11.59-12.63-18.83-2.95-7.23-4.42-15.07-4.42-23.49,0-20.73,4.92-36.99,14.79-48.78h0ZM289.26,88.46c-2.45-.84-4.92-1.26-7.46-1.26-4.03,0-7.66.93-10.86,2.79-3.21,1.85-5.9,4.34-8.1,7.45-2.19,3.14-3.88,6.83-5.06,11.13-1.16,4.3-1.76,8.88-1.76,13.78v27.81c0,11.29.04,19.92.13,25.89.1,5.98.38,10.82.89,14.53-3.37-.34-6.75-.5-10.12-.5-3.71,0-7.25.16-10.61.5.5-5.71.79-13.53.88-23.38.09-9.85.13-21.93.13-36.25v-8.09c0-6.59-.04-14.17-.13-22.76-.09-8.6-.38-18.45-.88-29.57,1.85.34,3.62.62,5.29.88,1.7.26,3.46.37,5.32.37,1.51,0,3.12-.12,4.81-.37,1.68-.26,3.44-.54,5.31-.88-.68,6.07-1.07,10.86-1.14,14.4-.08,3.53-.13,6.91-.13,10.11l.52.25c9.93-18.2,21.06-27.29,33.36-27.29,1.51,0,2.81.09,3.9.26,1.1.16,2.48.59,4.16,1.26-.84,2.02-1.33,5.1-1.51,9.22-.17,4.13-.24,7.88-.24,11.25l-1.77,1.27c-.84-1.01-2.5-1.94-4.93-2.79h0ZM316.04,54.09c-.08-6.73-.19-13.41-.37-19.96-.16-6.59-.37-12.86-.63-18.84-.25-5.98-.54-11.07-.88-15.29,4.71.85,8.51,1.27,11.37,1.27s6.66-.42,11.38-1.27c-.35,4.22-.63,9.32-.88,15.29-.27,5.98-.47,12.26-.64,18.84-.18,6.55-.3,13.23-.39,19.96-.09,6.75-.11,12.97-.11,18.7v45.99c0,3.2,1.01,4.82,3.02,4.82,1.35,0,2.81-.6,4.43-1.78,1.59-1.17,3.4-2.51,5.43-4.04,1.5-1.18,4.09-3.46,7.71-6.83,3.63-3.38,7.65-7.29,12.13-11.75,4.45-4.47,9.04-9.23,13.78-14.28,4.7-5.06,9.01-9.86,12.89-14.4,3.37.85,6.56,1.25,9.59,1.25,1.85,0,3.72-.12,5.57-.37,1.86-.26,4.19-.54,7.08-.88-10.63,8.59-20.78,17.06-30.46,25.39-9.68,8.34-18.92,16.81-27.67,25.4,9.59,11.62,19.5,23.24,29.7,34.88,10.18,11.62,20.59,23.07,31.2,34.37-2.87-.34-5.43-.5-7.7-.5h-12.76c-2.21,0-4.48.16-6.84.5-3.7-4.21-7.91-9.13-12.64-14.78-4.7-5.65-9.38-11.23-14.01-16.81-4.64-5.56-9.06-10.77-13.26-15.68-4.23-4.88-7.83-8.9-10.87-12.11-.51-.68-1.1-1.26-1.77-1.78-.68-.49-1.36-.76-2.02-.76-1.68,0-2.52,1.01-2.52,3.05v15.15c0,7.59.11,14.96.37,22.12.25,7.16.79,14.35,1.65,21.6-3.88-.34-7.68-.5-11.38-.5s-7.49.16-11.37.5c.35-3.88.63-8.77.88-14.66.26-5.89.46-12.11.63-18.7.17-6.57.28-13.22.37-19.96.1-6.74.14-12.96.14-18.71v-45.73c0-5.73-.04-11.95-.14-18.7h0ZM434.7,17.45c2.53-2.54,5.57-3.8,9.12-3.8s6.56,1.27,9.1,3.8c2.5,2.52,3.77,5.56,3.77,9.09s-1.27,6.57-3.77,9.1c-2.54,2.52-5.57,3.8-9.1,3.8s-6.59-1.28-9.12-3.8c-2.52-2.53-3.79-5.57-3.79-9.1s1.27-6.56,3.79-9.09h0ZM434.07,93.9c-.26-8.34-.8-16.14-1.65-23.38,4.72.85,8.51,1.25,11.38,1.25s6.64-.4,11.37-1.25c-.85,7.24-1.4,15.04-1.65,23.38-.24,8.34-.38,16.3-.38,23.89v26.27c0,7.57.14,15.55.38,23.89.25,8.33.8,15.88,1.65,22.61-3.88-.34-7.66-.5-11.37-.5s-7.51.16-11.38.5c.84-6.73,1.39-14.28,1.65-22.61.25-8.34.37-16.32.37-23.89v-26.27c0-7.59-.12-15.55-.37-23.89h0ZM554.25,90.87c-4.89-6.49-11.63-9.74-20.23-9.74-11.79,0-20.42,3.63-25.9,10.88-5.45,7.24-8.21,17.43-8.21,30.59v21.46c0,7.57.12,15.55.38,23.89.26,8.33.8,15.88,1.64,22.61-3.87-.34-7.67-.5-11.37-.5s-7.5.16-11.38.5c.85-6.73,1.4-14.28,1.63-22.61.26-8.34.4-16.32.4-23.89v-26.27c0-7.59-.13-15.55-.4-23.89-.24-8.34-.79-16.14-1.63-23.38,4.72.85,8.51,1.25,11.38,1.25,1.34,0,2.82-.12,4.42-.37,1.6-.26,3.49-.54,5.68-.88-.48,6.74-.76,13.48-.76,20.2h.51c4.74-7.23,10.4-12.84,16.98-16.79,6.6-3.96,14.46-5.94,23.59-5.94,4.71,0,9.49.67,14.32,2.02,4.8,1.35,9.17,3.66,13.04,6.95,3.89,3.29,7.07,7.76,9.52,13.39,2.45,5.65,3.67,12.85,3.67,21.62,0,7.23-.16,14.71-.51,22.37-.33,7.67-.5,15.81-.5,24.38v16.43c0,2.72.05,5.35.12,7.96.1,2.62.22,5.1.38,7.45-3.4-.34-6.98-.5-10.74-.5s-7.07.16-10.46.5c.32-8.77.7-17.76,1.12-27.04.42-9.27.65-18.79.65-28.56v-15.42c0-12.64-2.45-22.19-7.34-28.68h0ZM609.72,172.62c1.76,2.04,3.87,3.93,6.32,5.7,2.45,1.76,5.22,3.23,8.34,4.4,3.1,1.21,6.45,1.78,9.98,1.78,3.2,0,6.28-.49,9.23-1.52,2.95-1.01,5.56-2.44,7.83-4.29,2.28-1.84,4.1-4.21,5.43-7.07,1.34-2.87,2.02-6.13,2.02-9.84,0-5.24-1.48-9.23-4.43-12.01-2.94-2.79-6.6-5.06-10.98-6.83-4.38-1.77-9.19-3.33-14.42-4.66-5.22-1.37-10.02-3.26-14.4-5.71-4.38-2.43-8.04-5.68-10.99-9.71-2.95-4.06-4.43-9.62-4.43-16.7,0-5.56.93-10.65,2.78-15.29,1.85-4.64,4.55-8.63,8.09-12.01,3.55-3.37,7.92-6.02,13.15-7.96,5.21-1.93,11.2-2.9,17.93-2.9,6.24,0,11.51.84,15.81,2.53,4.29,1.68,8.38,3.2,12.26,4.54-1.35,2.52-2.61,5.65-3.79,9.35-1.18,3.71-1.94,6.57-2.27,8.6h-3.03c-1.36-4.05-3.96-7.66-7.83-10.87-3.88-3.21-8.68-4.79-14.42-4.79-2.52,0-5.05.41-7.59,1.24-2.52.85-4.8,2.12-6.82,3.79-2.02,1.69-3.71,3.88-5.05,6.57-1.34,2.7-2.02,5.9-2.02,9.61,0,5.38,1.48,9.56,4.41,12.51,2.95,2.95,6.62,5.26,11,6.93,4.38,1.71,9.17,3.17,14.4,4.43,5.22,1.27,10.02,3.05,14.4,5.32,4.38,2.27,8.06,5.43,10.99,9.48,2.95,4.04,4.41,9.6,4.41,16.67,0,4.89-1.04,9.71-3.15,14.4-2.1,4.73-5.15,8.98-9.1,12.77-3.96,3.79-8.73,6.76-14.29,8.85-5.56,2.1-11.88,3.15-18.95,3.15-7.76,0-14.24-.76-19.45-2.27-5.23-1.5-9.6-3.27-13.15-5.31,1.01-2.2,2.06-5.17,3.17-8.96,1.1-3.79,1.63-6.96,1.63-9.49h3.04c.84,1.68,2.15,3.54,3.92,5.56h0Z" fill="#004e9a"/><path d="M73.11,250.21c6.04,0,10.97-4.9,10.97-10.96s-4.93-10.99-10.97-10.99-10.98,4.91-10.98,10.99,4.92,10.96,10.98,10.96h0Z" fill="#636569"/><path d="M73.11,283.7c6.04,0,10.97-4.91,10.97-10.99s-4.93-10.98-10.97-10.98-10.98,4.92-10.98,10.98,4.92,10.99,10.98,10.99h0Z" fill="#636569"/><path d="M73.11,317.19c6.04,0,10.97-4.93,10.97-10.99s-4.93-11-10.97-11-10.98,4.91-10.98,11,4.92,10.99,10.98,10.99h0Z" fill="#636569"/><path d="M107.13,250.21c6.06,0,10.96-4.9,10.96-10.96s-4.9-10.99-10.96-10.99-10.98,4.91-10.98,10.99,4.91,10.96,10.98,10.96h0Z" fill="#636569"/><path d="M164.63,250.21c6.07,0,10.98-4.9,10.98-10.96s-4.91-10.99-10.98-10.99-10.96,4.91-10.96,10.99,4.92,10.96,10.96,10.96h0Z" fill="#636569"/><path d="M200.43,283.7c6.06,0,10.96-4.91,10.96-10.99s-4.91-10.98-10.96-10.98-10.98,4.92-10.98,10.98,4.92,10.99,10.98,10.99h0Z" fill="#636569"/><path d="M259.77,283.7c6.07,0,10.97-4.91,10.97-10.99s-4.9-10.98-10.97-10.98-10.96,4.92-10.96,10.98,4.9,10.99,10.96,10.99h0Z" fill="#636569"/><path d="M294.21,283.7c6.07,0,10.99-4.91,10.99-10.99s-4.92-10.98-10.99-10.98-10.96,4.92-10.96,10.98,4.91,10.99,10.96,10.99h0Z" fill="#636569"/><path d="M446.44,283.7c6.06,0,10.97-4.91,10.97-10.99s-4.91-10.98-10.97-10.98-10.98,4.92-10.98,10.98,4.92,10.99,10.98,10.99h0Z" fill="#636569"/><path d="M567.76,281.15c6.06,0,10.98-4.93,10.98-10.99s-4.92-10.98-10.98-10.98-10.97,4.9-10.97,10.98,4.91,10.99,10.97,10.99h0Z" fill="#636569"/><path d="M625.02,283.7c6.07,0,10.98-4.91,10.98-10.99s-4.91-10.98-10.98-10.98-10.99,4.92-10.99,10.98,4.93,10.99,10.99,10.99h0Z" fill="#636569"/><path d="M259.77,250.21c6.07,0,10.97-4.9,10.97-10.96s-4.9-10.99-10.97-10.99-10.96,4.91-10.96,10.99,4.9,10.96,10.96,10.96h0Z" fill="#636569"/><path d="M350.84,250.21c6.05,0,10.96-4.9,10.96-10.96s-4.91-10.99-10.96-10.99-10.98,4.91-10.98,10.99,4.93,10.96,10.98,10.96h0Z" fill="#636569"/><path d="M479.85,250.21c6.05,0,10.96-4.9,10.96-10.96s-4.91-10.99-10.96-10.99-10.99,4.91-10.99,10.99,4.92,10.96,10.99,10.96h0Z" fill="#636569"/><path d="M537.04,250.21c6.06,0,10.97-4.9,10.97-10.96s-4.91-10.99-10.97-10.99-10.98,4.91-10.98,10.99,4.92,10.96,10.98,10.96h0Z" fill="#636569"/><path d="M567.76,250.21c6.06,0,10.98-4.9,10.98-10.96s-4.92-10.99-10.98-10.99-10.97,4.91-10.97,10.99,4.91,10.96,10.97,10.96h0Z" fill="#636569"/><path d="M660.68,250.21c6.07,0,10.97-4.9,10.97-10.96s-4.9-10.99-10.97-10.99-10.96,4.91-10.96,10.99,4.91,10.96,10.96,10.96h0Z" fill="#636569"/><path d="M259.77,317.19c6.07,0,10.97-4.93,10.97-10.99s-4.9-11-10.97-11-10.96,4.91-10.96,11,4.9,10.99,10.96,10.99h0Z" fill="#636569"/><path d="M353.28,317.19c6.06,0,10.98-4.93,10.98-10.99s-4.92-11-10.98-11-10.97,4.91-10.97,11,4.9,10.99,10.97,10.99h0Z" fill="#636569"/><path d="M537.04,315.62c6.06,0,10.97-4.94,10.97-10.99s-4.91-11-10.97-11-10.98,4.93-10.98,11,4.92,10.99,10.98,10.99h0Z" fill="#636569"/><path d="M625.02,317.19c6.07,0,10.98-4.93,10.98-10.99s-4.91-11-10.98-11-10.99,4.91-10.99,11,4.93,10.99,10.99,10.99h0Z" fill="#636569"/><path d="M10.98,317.19c6.06,0,10.97-4.93,10.97-10.99s-4.91-11-10.97-11-10.98,4.91-10.98,11,4.92,10.99,10.98,10.99h0Z" fill="#636569"/><g isolation="isolate"><g isolation="isolate"><g isolation="isolate"><g isolation="isolate"><text transform="translate(679.05 206.37)" fill="#045198" font-family="AvenirNext-Regular, &apos;Avenir Next&apos;" font-size="46.1" isolation="isolate"><tspan x="0" y="0">™</tspan></text></g></g></g></g></svg>